<?xml version="1.0" encoding="UTF-8" standalone="no"?>
<svg
   xmlns:dc="http://purl.org/dc/elements/1.1/"
   xmlns:cc="http://creativecommons.org/ns#"
   xmlns:rdf="http://www.w3.org/1999/02/22-rdf-syntax-ns#"
   xmlns:svg="http://www.w3.org/2000/svg"
   xmlns="http://www.w3.org/2000/svg"
   xmlns:sodipodi="http://sodipodi.sourceforge.net/DTD/sodipodi-0.dtd"
   xmlns:inkscape="http://www.inkscape.org/namespaces/inkscape"
   data-name="Layer 1"
   viewBox="0 0 16 16"
   x="0px"
   y="0px"
   version="1.1"
   id="svg12"
   sodipodi:docname="icon.svg"
   width="16"
   height="16"
   inkscape:version="1.0.2 (e86c870879, 2021-01-15)">
  <metadata
     id="metadata18">
    <rdf:RDF>
      <cc:Work
         rdf:about="">
        <dc:format>image/svg+xml</dc:format>
        <dc:type
           rdf:resource="http://purl.org/dc/dcmitype/StillImage" />
        <dc:title>51</dc:title>
      </cc:Work>
    </rdf:RDF>
  </metadata>
  <defs
     id="defs16" />
  <sodipodi:namedview
     pagecolor="#ffffff"
     bordercolor="#666666"
     borderopacity="1"
     objecttolerance="10"
     gridtolerance="10"
     guidetolerance="10"
     inkscape:pageopacity="0"
     inkscape:pageshadow="2"
     inkscape:window-width="2560"
     inkscape:window-height="1376"
     id="namedview14"
     showgrid="false"
     inkscape:zoom="8.064"
     inkscape:cx="50"
     inkscape:cy="41.370452"
     inkscape:window-x="0"
     inkscape:window-y="27"
     inkscape:window-maximized="1"
     inkscape:current-layer="svg12" />
  <title
     id="title2">51</title>
  <g
     data-name="Group"
     id="g6"
     transform="matrix(0.16137708,0,0,0.16137708,-0.0656252,-0.07288843)"
     style="fill:#2b87df;fill-opacity:0.941176">
    <path
       data-name="Compound Path"
       d="m 24.6,44.8 a 5,5 0 0 0 -4,2 l -6.9,9 a 5,5 0 0 0 0.1,6.3 l 6.9,8.3 v 0 a 5,5 0 0 0 3.8,1.8 h 17.7 v 21.3 a 3,3 0 0 0 3,3 h 9.7 a 3,3 0 0 0 3,-3 V 72.2 h 22.6 a 5,5 0 0 0 4,-8 l -4,-5.3 4.3,-6.1 A 5,5 0 0 0 80.7,44.9 H 57.8 v -5.7 h 17.6 a 5,5 0 0 0 4,-2 l 6.9,-9 A 5,5 0 0 0 86.2,22 l -6.9,-8.3 v 0 A 5,5 0 0 0 75.5,11.9 H 57.8 v -0.5 a 7.85,7.85 0 0 0 -15.7,0 v 0.5 H 19.5 a 5,5 0 0 0 -4,8 l 4,5.3 -4.3,6.1 a 5,5 0 0 0 4.1,7.9 h 22.9 v 5.7 z M 51.8,90.5 H 48.2 V 72.2 h 3.7 z m 23.4,-28.6 3.2,4.2 H 25 l -6,-7.2 6.2,-8 H 78.7 L 75.1,56 a 5,5 0 0 0 0.1,5.9 z m -27,-50.6 a 1.85,1.85 0 0 1 3.7,0 v 0.5 H 48.2 Z M 24.8,22.1 21.6,17.9 H 75 l 6,7.2 -6.2,8 H 21.3 L 24.9,28 a 5,5 0 0 0 -0.1,-5.9 z m 23.4,17.1 h 3.7 v 5.7 h -3.7 z"
       id="path4"
       style="fill:#2b87df;fill-opacity:0.941176" />
  </g>
</svg>
