<?xml version="1.0" encoding="UTF-8" standalone="no"?>
<svg
   xmlns:dc="http://purl.org/dc/elements/1.1/"
   xmlns:cc="http://creativecommons.org/ns#"
   xmlns:rdf="http://www.w3.org/1999/02/22-rdf-syntax-ns#"
   xmlns:svg="http://www.w3.org/2000/svg"
   xmlns="http://www.w3.org/2000/svg"
   xmlns:sodipodi="http://sodipodi.sourceforge.net/DTD/sodipodi-0.dtd"
   xmlns:inkscape="http://www.inkscape.org/namespaces/inkscape"
   width="22"
   height="22"
   clip-rule="evenodd"
   fill-rule="evenodd"
   image-rendering="optimizeQuality"
   shape-rendering="geometricPrecision"
   text-rendering="geometricPrecision"
   version="1.0"
   viewBox="0 0 22 22"
   xml:space="preserve"
   id="svg12"
   sodipodi:docname="single-location-map-icon.svg"
   inkscape:version="1.0.2 (e86c870879, 2021-01-15)"><sodipodi:namedview
     pagecolor="#ffffff"
     bordercolor="#666666"
     borderopacity="1"
     objecttolerance="10"
     gridtolerance="10"
     guidetolerance="10"
     inkscape:pageopacity="0"
     inkscape:pageshadow="2"
     inkscape:window-width="2560"
     inkscape:window-height="1376"
     id="namedview14"
     showgrid="false"
     inkscape:zoom="45.818182"
     inkscape:cx="11"
     inkscape:cy="11"
     inkscape:window-x="0"
     inkscape:window-y="27"
     inkscape:window-maximized="1"
     inkscape:current-layer="svg12" /><metadata
     id="metadata2"><rdf:RDF><cc:Work
         rdf:about=""><dc:format>image/svg+xml</dc:format><dc:type
           rdf:resource="http://purl.org/dc/dcmitype/StillImage" /><dc:title /></cc:Work></rdf:RDF></metadata><defs
     id="defs6"><style
       type="text/css"
       id="style4">
   
    .fil0 {fill:black}
   
  </style></defs><g
     transform="matrix(.092908 0 0 .092908 3.7996 .046644)"
     fill="#2b87df"
     fill-opacity=".94118"
     stroke="#2b87df"
     stroke-opacity=".94118"
     stroke-width="1.0041"
     id="g10"
     style="fill-opacity:1;fill:#2b87df"><path
       class="fil0"
       d="m78 0c43 0 77 35 77 79 0 43-34 53-77 156-44-103-78-113-78-156 0-44 35-79 78-79zm0 48c16 0 30 13 30 30 0 16-14 30-30 30-17 0-30-14-30-30 0-17 13-30 30-30z"
       fill="#2b87df"
       fill-opacity=".94118"
       stroke="#2b87df"
       stroke-opacity=".94118"
       stroke-width="1.0041"
       id="path8"
       style="fill-opacity:1;fill:#2b87df" /></g></svg>
